<svg fill="none" height="24" viewBox="0 0 24 24" width="24" xmlns="http://www.w3.org/2000/svg"><path d="m0 0h24v24h-24z" fill="#0f152b"/><g clip-rule="evenodd" fill="#fff" fill-rule="evenodd" opacity=".8"><path d="m18.6464 5.23699c.2243.19.3536.46907.3536.76302v8.66669c0 .5523-.4477 1-1 1s-1-.4477-1-1v-7.48623l-6 1v7.81953c0 .5523-.4477 1-1 1-.55228 0-1-.4477-1-1v-8.66666c0-.48884.35341-.90603.8356-.98639l8-1.33334c.29-.04832.5865.03337.8108.22338z"/><path d="m8 15c-.55228 0-1 .4477-1 1s.44772 1 1 1 1-.4477 1-1-.44772-1-1-1zm-3 1c0-1.6569 1.34315-3 3-3s3 1.3431 3 3-1.34315 3-3 3-3-1.3431-3-3z"/><path d="m16 13.6667c-.5523 0-1 .4477-1 1s.4477 1 1 1 1-.4477 1-1-.4477-1-1-1zm-3 1c0-1.6569 1.3431-3 3-3s3 1.3431 3 3c0 1.6568-1.3431 3-3 3s-3-1.3432-3-3z"/></g></svg>