<svg xmlns="http://www.w3.org/2000/svg" width="75" height="72" viewBox="0 0 75 72">
    <g fill="none" fill-rule="evenodd" stroke="#13D4C8" transform="translate(1 1)">
        <path stroke-linecap="round" stroke-width="1.714" d="M15.574 4.726c20.772-10.886 40.976.548 40.976.548M54.347 6.08l2.03-.566a.428.428 0 0 0 .293-.531l-.637-1.972"/>
        <path stroke-dasharray="1.714" stroke-width=".6" d="M36.277 25.383c3.327 0 6.023-2.686 6.023-6s-2.696-6-6.023-6c-3.326 0-6.023 2.686-6.023 6s2.697 6 6.023 6zM38.927 28.811h-5.283c-3.287 0-5.954 4.166-5.954 9.292v7.611a2.36 2.36 0 0 0 .62 1.629l2.202 2.297a2.36 2.36 0 0 1 .62 1.629V67.81a1.973 1.973 0 0 0 1.72 2.143h6.884a1.973 1.973 0 0 0 1.721-2.143V51.27a2.36 2.36 0 0 1 .62-1.629l2.203-2.297a2.36 2.36 0 0 0 .62-1.629v-7.611c-.018-5.143-2.686-9.292-5.973-9.292z"/>
        <ellipse cx="9.603" cy="19.383" stroke-width="1.714" rx="6.023" ry="6"/>
        <path stroke-width="1.714" d="M13.113 28.811H6.11c-3.287 0-5.954 4.166-5.954 9.292v7.611a2.36 2.36 0 0 0 .62 1.629l2.202 2.297a2.36 2.36 0 0 1 .62 1.629V67.81a1.973 1.973 0 0 0 1.72 2.143h8.605a1.973 1.973 0 0 0 1.721-2.143V51.27a2.36 2.36 0 0 1 .62-1.629l2.203-2.297a2.36 2.36 0 0 0 .62-1.629v-7.611c-.018-5.143-2.686-9.292-5.973-9.292z"/>
        <ellipse cx="62.952" cy="19.383" stroke-width="1.714" rx="6.023" ry="6"/>
        <path stroke-width="1.714" d="M66.462 28.811h-7.004c-3.287 0-5.954 4.166-5.954 9.292v7.611a2.36 2.36 0 0 0 .62 1.629l2.202 2.297a2.36 2.36 0 0 1 .62 1.629V67.81a1.973 1.973 0 0 0 1.72 2.143h8.605a1.973 1.973 0 0 0 1.721-2.143V51.27a2.36 2.36 0 0 1 .62-1.629l2.202-2.297a2.36 2.36 0 0 0 .62-1.629v-7.611c-.017-5.143-2.685-9.292-5.972-9.292z"/>
    </g>
</svg>
