<svg xmlns="http://www.w3.org/2000/svg" width="73" height="72" viewBox="0 0 73 72">
    <g fill="none" fill-rule="evenodd" stroke="#13D4C8" stroke-width="1.732">
        <path d="M15.571 50.354c1.894 0 3.429 1.55 3.429 3.463v14.72c.089 1.32-.888 2.47-2.194 2.58h-5.897c-1.307-.11-2.284-1.26-2.195-2.58v-14.72c0-1.913 1.535-3.463 3.429-3.463h3.428zM31 38.232c1.894 0 3.429 1.55 3.429 3.463v26.842c.088 1.32-.888 2.47-2.195 2.58h-5.897c-1.306-.11-2.283-1.26-2.194-2.58V41.695c0-1.913 1.535-3.463 3.428-3.463H31zM46.429 26.11c1.893 0 3.428 1.55 3.428 3.463v38.964c.089 1.33-.896 2.487-2.211 2.597h-5.863c-1.316-.11-2.3-1.267-2.212-2.597V29.573c0-1.913 1.535-3.463 3.429-3.463h3.429zM61.857 8.793c1.894 0 3.429 1.55 3.429 3.463v55.276c0 1.992-.995 3.602-2.212 3.602h-5.863c-1.217 0-2.211-1.61-2.211-3.602V12.256c0-1.913 1.535-3.463 3.429-3.463h3.428z"/>
        <path stroke-linecap="round" d="M8.714 30.44c19.381.022 37.13-10.964 45.909-28.418M51.246 2.732l2.897-.9a.595.595 0 0 1 .475.039.605.605 0 0 1 .296.376l.806 2.874"/>
        <path stroke-linecap="round" d="M1.857 3.528v67.606h70.286"/>
    </g>
</svg>
