<svg xmlns="http://www.w3.org/2000/svg" width="71" height="74" viewBox="0 0 71 74">
    <g fill="none" fill-rule="evenodd" stroke="#13D4C8" stroke-width="1.682" transform="translate(0 1)">
        <path stroke-linecap="round" d="M9.467 23.74a5.871 5.871 0 0 0-5.072 4.625M64.965 28.381a5.876 5.876 0 0 0-5.798-4.675h-1.454"/>
        <path d="M38.39 26.06a5.03 5.03 0 0 1 1.58-6.055 5.092 5.092 0 0 1 6.286.127 5.028 5.028 0 0 1 1.33 6.113l-.168.32M21.723 9.83c.05-.3.221-.566.473-.74l1.927-1.345c.206-.208.485-.328.778-.336l9.01 1.01 1.217-4.02-14.74-1.682A1.316 1.316 0 0 0 19 3.945L17.598 15.97l3.567-1.077.558-5.062z"/>
        <path d="M24.9 7.41a1.137 1.137 0 0 0-.777.2l-1.927 1.48a1.126 1.126 0 0 0-.473.791l-.575 5.13 4.21-1.295a1.048 1.048 0 0 1 1.25.774l2.79 9.2 4.564-15.137L24.9 7.409z"/>
        <path d="M12.594 23.201a.887.887 0 0 1 .085-.723l.98-1.58a.895.895 0 0 1 .507-.388l7.912-2.405a.9.9 0 0 1 .659 0l1.572.79c.22.11.385.305.456.54l2.181 7.08h1.539l.862-2.893-2.79-9.2a1.048 1.048 0 0 0-1.25-.773l-4.16 1.244-3.566 1.077-8.199 2.522c-.54.198-.818.79-.625 1.329l2.045 6.727h2.823l-1.031-3.347z"/>
        <path d="M24.765 19.468a.893.893 0 0 0-.456-.538l-1.572-.79a.9.9 0 0 0-.66 0l-7.91 2.404a.895.895 0 0 0-.508.387l-.98 1.58a.887.887 0 0 0-.085.724l1.031 3.364H26.93l-2.164-7.131zM29.347 23.672l-.862 2.893h4.09L38.02 8.233a1.28 1.28 0 0 1 .676-.79l2.417-1.127a1.29 1.29 0 0 1 .913 0l11.36 3.364c.315.094.58.305.744.588l1.251 2.187c.173.3.216.659.118.992l-3.922 13.219h4.683l5.359-17.878a1.495 1.495 0 0 0-.896-1.9L37.917.16a1.505 1.505 0 0 0-1.792 1.11l-.997 3.364-1.217 4.02-4.564 15.018z"/>
        <path d="M55.397 12.354l-1.302-2.187a1.284 1.284 0 0 0-.744-.588l-11.36-3.364a1.29 1.29 0 0 0-.912 0l-2.384 1.194a1.28 1.28 0 0 0-.676.79l-5.444 18.332h19.018l3.922-13.219a1.272 1.272 0 0 0-.118-.958z"/>
        <path stroke-linecap="round" stroke-linejoin="round" d="M68.464 43.114v-7.333c0-2.45-.98-4.8-2.725-6.529a9.288 9.288 0 0 0-6.572-2.687H10.143a9.288 9.288 0 0 0-6.573 2.687 9.193 9.193 0 0 0-2.725 6.53V62.69a9.192 9.192 0 0 0 2.701 6.573 9.288 9.288 0 0 0 6.597 2.711h49.024c5.116 0 9.263-4.126 9.263-9.216V53.71"/>
        <path d="M49.869 48.429c0 2.786 2.27 5.045 5.071 5.045h11.834a3.589 3.589 0 0 0 3.38-3.767V47.15a3.589 3.589 0 0 0-3.38-3.767H54.94c-2.8 0-5.071 2.26-5.071 5.046z"/>
        <ellipse cx="56.63" cy="48.623" rx="3.381" ry="3.364" transform="rotate(-65.1 56.63 48.623)"/>
        <path fill="#FFF" fill-rule="nonzero" stroke-linecap="round" d="M.845 34.974h67.62M.845 61.883h67.62"/>
    </g>
</svg>
