<?xml version="1.0" encoding="UTF-8"?>
<svg width="144px" height="34px" viewBox="0 0 144 34" version="1.1" xmlns="http://www.w3.org/2000/svg" xmlns:xlink="http://www.w3.org/1999/xlink">
    <!-- Generator: sketchtool 51.1 (57501) - http://www.bohemiancoding.com/sketch -->
    <title>8B9A705D-ADE8-493F-A612-5F87F2688088</title>
    <desc>Created with sketchtool.</desc>
    <defs></defs>
    <g id="landihg_page_web" stroke="none" stroke-width="1" fill="none" fill-rule="evenodd">
        <g id="00_landing-page_03" transform="translate(-220.000000, -31.000000)" fill="#FFFFFF" fill-rule="nonzero">
            <g id="header" transform="translate(-69.000000, -100.000000)">
                <g id="menu" transform="translate(289.000000, 124.000000)">
                    <g id="TRADEY-Final-Logo" transform="translate(0.000000, 7.000000)">
                        <g id="Group">
                            <path d="M10.9253019,25.8104737 C9.45425823,25.8104737 8.26127229,27.1152982 8.26127229,28.7255263 L8.26127229,30.9981579 C8.26127229,32.608386 9.45425823,33.9135088 10.9253019,33.9135088 C12.3960497,33.9135088 13.588444,32.608386 13.588444,30.9981579 L13.588444,28.7255263 C13.5887399,27.1152982 12.3960497,25.8104737 10.9253019,25.8104737 Z" id="Shape"></path>
                            <path d="M36.0040374,10.1904561 C34.5477841,10.1904561 33.3666304,11.426386 33.3666304,12.9510175 L33.3666304,14.1884386 L33.3666304,14.550807 C33.3666304,15.3882807 32.7007709,16.067386 31.8802048,16.067386 C31.0587513,16.067386 30.3928918,15.3879825 30.3928918,14.550807 L30.3928918,14.1884386 L30.3928918,12.3425965 C30.3928918,10.830193 29.176833,9.60410526 27.6765046,9.60410526 C26.1767677,9.60410526 24.9598215,10.8298947 24.9598215,12.3425965 L24.9598215,14.1884386 L24.9598215,14.550807 C24.9598215,15.3882807 24.3028362,16.067386 23.4923275,16.067386 C22.6827063,16.067386 22.0251293,15.3879825 22.0251293,14.550807 L22.0251293,14.1884386 L22.0251293,9.86775439 L22.0251293,8.76096491 C22.0251293,7.16564912 20.8120286,5.87245614 19.3158414,5.87245614 C17.8187668,5.87245614 16.6056661,7.16564912 16.6056661,8.76096491 L16.6056661,9.86775439 L16.6056661,14.5511053 C16.6056661,15.3885789 15.9637669,16.0676842 15.1715982,16.0676842 C14.3797253,16.0676842 13.7372345,15.3882807 13.7372345,14.5511053 L13.7372345,9.86775439 L13.7372345,4.13129825 C13.7372345,2.57564912 12.5445444,1.31407018 11.0737965,1.31407018 C9.60275288,1.31407018 8.41035856,2.57535088 8.41035856,4.13129825 L8.41035856,9.86775439 L8.41035856,14.4019825 L8.41035856,14.5511053 C8.41035856,15.3891754 7.77112161,16.0676842 6.98309421,16.0676842 C6.19447519,16.0676842 5.55523824,15.3888772 5.55523824,14.5511053 L5.55523824,14.4019825 L5.55523824,13.0846316 C5.55523824,11.4863333 4.35959006,10.1904561 2.88499673,10.1904561 C1.4104034,10.1904561 0.214755216,11.4863333 0.214755216,13.0846316 L0.214755216,21.7692456 C0.214755216,23.3675439 1.4104034,24.6637193 2.88499673,24.6637193 C4.11081714,24.6637193 5.14140553,23.7674912 5.45495998,22.5479649 L5.45495998,20.2103158 C5.45495998,19.3725439 6.11667819,18.6934386 6.93280717,18.6934386 C7.74834454,18.6934386 8.41035856,19.3725439 8.41035856,20.2103158 L8.41035856,21.6064035 C8.41035856,23.1629474 9.60275288,24.4239298 11.0737965,24.4239298 C12.5448402,24.4239298 13.7372345,23.1626491 13.7372345,21.6064035 L13.7372345,21.5849298 L13.7372345,20.1032456 C13.7372345,19.2657719 14.3791337,18.5866667 15.1715982,18.5866667 C15.9637669,18.5866667 16.6056661,19.2657719 16.6056661,20.1032456 L16.6056661,21.5849298 L16.6056661,24.787193 L16.6056661,26.093807 C16.6056661,27.6891228 17.8190626,28.9820175 19.3158414,28.9820175 C20.8123244,28.9820175 22.0251293,27.6891228 22.0251293,26.093807 L22.0251293,24.787193 L22.0251293,21.8649825 L22.0251293,20.1029474 C22.0251293,19.2654737 22.6827063,18.5863684 23.4923275,18.5863684 C24.3028362,18.5863684 24.9598215,19.2654737 24.9598215,20.1029474 L24.9598215,21.8649825 L24.9598215,24.787193 L24.9598215,30.9080877 C24.9598215,32.4198947 26.1764719,33.6465789 27.6765046,33.6465789 C29.1765372,33.6465789 30.3928918,32.4198947 30.3928918,30.9080877 L30.3928918,24.787193 L30.3928918,20.7194211 L30.3928918,20.1032456 C30.3928918,19.2657719 31.0587513,18.5866667 31.8796132,18.5866667 C32.7007709,18.5866667 33.3666304,19.2657719 33.3666304,20.1032456 L33.3666304,20.7194211 L33.3666304,21.9031579 C33.3666304,23.4280877 34.5477841,24.6640175 36.0040374,24.6640175 C37.4605866,24.6640175 38.6414445,23.4280877 38.6414445,21.9031579 L38.6414445,12.9513158 C38.6414445,11.426386 37.4605866,10.1904561 36.0040374,10.1904561 Z" id="Shape"></path>
                            <path d="M27.7389197,0.221298246 C26.2681718,0.221298246 25.0757775,1.52642105 25.0757775,3.13694737 L25.0757775,5.40957895 C25.0757775,7.01950877 26.2681718,8.32463158 27.7389197,8.32463158 C29.2099633,8.32463158 30.4023576,7.01950877 30.4023576,5.40957895 L30.4023576,3.13694737 C30.4023576,1.52642105 29.2099633,0.221298246 27.7389197,0.221298246 Z" id="Shape"></path>
                        </g>
                        <g id="Group" transform="translate(49.666719, 10.140351)">
                            <polygon id="Shape" points="10.1712922 0.554736842 10.1712922 2.84824561 6.37462109 2.84824561 6.37462109 13.6727719 4.08064492 13.6727719 4.08064492 2.84824561 0.283678034 2.84824561 0.283678034 0.554736842"></polygon>
                            <path d="M22.0061978,0.554736842 C22.7389094,0.554736842 23.368089,0.661508772 23.8949196,0.875350877 C24.4217502,1.08919298 24.8556978,1.37461404 25.1958748,1.73042105 C25.5360517,2.08712281 25.7868953,2.50526316 25.9478138,2.98424561 C26.1087323,3.46322807 26.1888958,3.96219298 26.1888958,4.48054386 C26.1888958,4.89510526 26.1377213,5.30638596 26.034485,5.71438596 C25.9315445,6.12268421 25.7715134,6.50503509 25.5526169,6.8614386 C25.3340162,7.21784211 25.0515214,7.53189474 24.7045408,7.80389474 C24.3578561,8.07619298 23.9336702,8.28317544 23.4328705,8.42603509 L26.4586709,13.6730702 L23.9336702,13.6730702 L20.9652562,8.60080702 L17.5732478,8.60080702 C17.3546471,8.60080702 17.2454947,8.71085965 17.2454947,8.93066667 L17.2454947,13.6727719 L14.9707459,13.6727719 L14.9707459,8.48419298 C14.9707459,7.7454386 15.1316644,7.21426316 15.4529098,6.89036842 C15.7738594,6.56647368 16.2944781,6.40452632 17.0141743,6.40452632 L22.0834031,6.40452632 C22.4043527,6.40452632 22.6812272,6.35292982 22.9122518,6.24884211 C23.1435721,6.14535088 23.3296342,6.00935088 23.4713253,5.84084211 C23.612129,5.67263158 23.7180276,5.47817544 23.789021,5.25777193 C23.8597187,5.03826316 23.8949196,4.811 23.8949196,4.57807018 C23.8949196,4.11161404 23.7505662,3.70659649 23.4615637,3.36361404 C23.1722653,3.02063158 22.7125827,2.84854386 22.0831073,2.84854386 L14.9512227,2.84854386 L14.9512227,0.555035088 L22.0061978,0.555035088 L22.0061978,0.554736842 Z" id="Shape"></path>
                            <path d="M32.7229563,13.6730702 L30.217183,13.6730702 L34.7853164,2.0125614 C35.0293564,1.3907193 35.373083,0.953192982 35.8164964,0.700877193 C36.2599097,0.447964912 36.828449,0.321807018 37.52241,0.321807018 C38.2033557,0.321807018 38.7653872,0.448263158 39.2088005,0.700877193 C39.6522138,0.953491228 39.9897286,1.3907193 40.2207531,2.0125614 L44.6155441,13.6730702 L42.0908392,13.6730702 L38.1391657,3.12054386 C38.0235056,2.82229825 37.8117084,2.67347368 37.5031827,2.67347368 C37.1949527,2.67347368 36.976352,2.82229825 36.848268,3.12054386 L32.7229563,13.6730702 Z" id="Shape"></path>
                            <path d="M54.8888894,0.554736842 C56.8033464,0.554736842 58.2584165,1.09277193 59.2546914,2.16794737 C60.2503746,3.24312281 60.7482163,4.89510526 60.7482163,7.12359649 C60.7482163,9.33896491 60.2503746,10.984386 59.2546914,12.0595614 C58.2584165,13.1353333 56.8033464,13.6727719 54.8888894,13.6727719 L50.3012328,13.6727719 C49.5815366,13.6727719 49.2221323,13.3163684 49.2221323,12.6038596 L49.2221323,1.62394737 C49.2221323,0.911438596 49.5818325,0.554736842 50.3012328,0.554736842 L54.8888894,0.554736842 Z M51.4962894,11.1463333 C51.4962894,11.3017193 51.5797067,11.3792632 51.747133,11.3792632 L54.8888894,11.3792632 C56.1481359,11.3792632 57.060106,11.0431404 57.6256873,10.368807 C58.1909727,9.69536842 58.4740591,8.60736842 58.4740591,7.10421053 C58.4740591,5.60164912 58.1948182,4.51603509 57.6354489,3.84915789 C57.0760796,3.18168421 56.1605597,2.84854386 54.8888894,2.84854386 L51.747133,2.84854386 C51.5800025,2.84854386 51.4962894,2.92608772 51.4962894,3.08147368 L51.4962894,11.1463333 Z" id="Shape"></path>
                            <polygon id="Shape" points="83.5693598 0.554736842 87.2128033 6.171 90.8938142 0.554736842 93.5921573 0.554736842 88.3492903 8.0174386 88.3492903 13.6727719 86.0559057 13.6727719 86.0559057 8.0174386 80.8130387 0.554736842"></polygon>
                            <path d="M71.6735182,2.33407018 C69.4614803,2.33407018 69.0875814,2.33049123 69.0875814,4.05554386 L69.0875814,5.83905263 L75.6210503,5.83905263 L75.6210503,7.68608772 L69.0875814,7.68608772 L69.0875814,9.70908772 C69.0875814,11.4341404 69.4617761,11.4302632 71.6735182,11.4302632 L75.9272096,11.4302632 L75.9272096,13.6143158 C74.7706079,13.6605439 72.8511222,13.7073684 71.7421452,13.7073684 C68.9308042,13.7073684 66.6202628,13.5794211 66.6202628,10.5018246 L66.6202628,3.26280702 C66.6202628,0.185508772 68.9311,0.0569649123 71.7421452,0.0569649123 C72.8511222,0.0569649123 74.7706079,0.104087719 75.9272096,0.150315789 L75.9272096,2.33407018 L71.6735182,2.33407018 Z" id="Shape"></path>
                        </g>
                    </g>
                </g>
            </g>
        </g>
    </g>
</svg>